<?xml version="1.0" standalone="no"?>
<!DOCTYPE svg PUBLIC "-//W3C//DTD SVG 20010904//EN"
 "http://www.w3.org/TR/2001/REC-SVG-20010904/DTD/svg10.dtd">
<svg version="1.0" xmlns="http://www.w3.org/2000/svg"
 width="400.000000pt" height="400.000000pt" viewBox="0 0 400.000000 400.000000"
 preserveAspectRatio="xMidYMid meet">
<metadata>
Created by potrace 1.11, written by Peter Selinger 2001-2013
</metadata>
<g transform="translate(0.000000,400.000000) scale(0.100000,-0.100000)"
fill="#000000" stroke="none">
<path d="M1917 3993 c-2 -1 -38 -5 -79 -7 -42 -2 -80 -6 -85 -9 -4 -2 -32 -8
-62 -11 -29 -4 -58 -9 -62 -12 -5 -3 -22 -8 -37 -10 -44 -8 -145 -35 -167 -45
-11 -5 -29 -11 -40 -14 -58 -12 -353 -151 -375 -176 -3 -3 -31 -21 -62 -40
-32 -18 -58 -37 -58 -41 0 -5 -6 -8 -14 -8 -8 0 -16 -3 -18 -8 -1 -4 -32 -30
-67 -57 -94 -74 -262 -243 -316 -320 -11 -15 -28 -36 -37 -46 -9 -9 -14 -20
-10 -23 3 -3 1 -6 -5 -6 -5 0 -18 -16 -29 -35 -10 -19 -22 -35 -26 -35 -5 0
-8 -6 -8 -13 0 -7 -8 -22 -17 -33 -25 -27 -145 -271 -151 -307 -1 -4 -9 -21
-17 -37 -9 -17 -13 -30 -9 -30 4 0 2 -6 -4 -13 -6 -7 -13 -25 -16 -40 -2 -15
-7 -31 -11 -37 -7 -11 -13 -39 -20 -83 -2 -16 -8 -34 -13 -40 -4 -7 -9 -21
-10 -32 0 -11 -4 -33 -7 -50 -4 -16 -8 -43 -10 -60 -2 -16 -4 -30 -5 -30 -6 0
-11 -92 -14 -267 -2 -109 -1 -198 3 -198 3 0 6 -12 7 -27 1 -54 13 -148 22
-180 6 -17 8 -34 4 -37 -3 -3 -1 -6 4 -6 5 0 11 -10 12 -22 2 -26 10 -63 12
-63 1 0 3 -8 5 -17 4 -24 25 -89 35 -113 5 -11 18 -46 29 -77 11 -32 25 -66
30 -75 5 -10 23 -45 39 -78 51 -104 76 -149 94 -169 10 -11 18 -26 18 -33 0
-7 5 -13 10 -13 6 0 10 -5 10 -10 0 -23 140 -192 249 -301 170 -170 325 -281
526 -378 110 -53 181 -82 235 -96 3 -1 16 -6 30 -12 14 -6 41 -14 60 -18 19
-4 39 -10 45 -13 5 -3 16 -7 25 -8 8 0 50 -9 92 -18 99 -21 129 -25 208 -31
36 -2 65 -5 65 -5 0 -7 83 -4 93 3 7 6 12 6 12 0 0 -15 203 -2 345 22 22 3 56
10 75 15 19 5 46 11 60 14 49 10 175 47 185 56 5 4 15 9 20 9 16 2 79 23 90
31 6 4 36 17 68 30 31 12 57 26 57 31 0 5 3 8 8 7 4 0 16 3 27 7 20 8 191 112
210 127 6 4 44 33 85 65 41 31 99 79 128 107 29 28 57 53 62 54 6 2 10 10 10
17 0 8 9 17 20 20 11 3 20 11 20 16 0 5 18 27 40 49 22 22 40 44 40 49 0 5 8
16 19 23 10 7 19 16 19 21 1 4 6 13 12 20 28 33 80 107 80 113 0 4 6 15 14 23
19 23 125 217 131 241 1 3 9 23 19 45 9 22 29 76 44 120 15 44 30 82 35 83 4
2 5 7 3 11 -3 4 2 32 10 62 8 30 18 68 22 84 10 41 9 782 -1 820 -4 17 -10 46
-13 65 -3 19 -10 40 -14 45 -5 6 -8 13 -8 18 -1 22 -16 74 -26 86 -6 8 -10 16
-8 18 1 1 2 4 1 6 0 1 -2 10 -4 20 -2 10 -11 35 -20 55 -9 20 -20 46 -24 57
-20 50 -86 180 -93 183 -5 2 -6 8 -2 13 3 5 0 9 -5 9 -6 0 -10 3 -9 8 2 10
-35 72 -44 72 -5 0 -8 6 -8 13 0 7 -9 23 -20 35 -12 12 -17 22 -13 22 4 0 3 4
-2 8 -6 4 -28 31 -49 60 -21 28 -43 52 -49 52 -5 0 -8 3 -4 6 12 13 -164 192
-299 303 -6 5 -35 26 -65 47 -30 21 -55 42 -57 46 -2 5 -8 8 -13 8 -7 0 -51
25 -134 77 -28 18 -211 105 -225 108 -13 2 -107 38 -123 47 -11 5 -21 7 -24 4
-3 -3 -14 -1 -25 5 -11 6 -28 12 -39 15 -10 2 -28 6 -40 9 -11 2 -28 6 -37 9
-21 6 -47 12 -162 32 -68 13 -404 26 -413 17z"/>
</g>
</svg>
