<?xml version="1.0" standalone="no"?>
<!DOCTYPE svg PUBLIC "-//W3C//DTD SVG 20010904//EN"
 "http://www.w3.org/TR/2001/REC-SVG-20010904/DTD/svg10.dtd">
<svg version="1.0" xmlns="http://www.w3.org/2000/svg"
 width="400.000000pt" height="400.000000pt" viewBox="0 0 400.000000 400.000000"
 preserveAspectRatio="xMidYMid meet">
<metadata>
Created by potrace 1.11, written by Peter Selinger 2001-2013
</metadata>
<g transform="translate(0.000000,400.000000) scale(0.100000,-0.100000)"
fill="#000000" stroke="none">
<path d="M350 2125 l0 -865 110 0 110 0 2 720 3 719 270 -719 270 -720 100 0
100 0 224 598 c124 328 245 653 270 720 l46 124 3 -721 2 -721 110 0 110 0 0
865 0 865 -158 0 -158 0 -28 -72 c-15 -40 -43 -116 -63 -168 -20 -52 -51 -133
-69 -180 -18 -47 -110 -290 -204 -540 -95 -250 -175 -464 -179 -474 -6 -15
-20 12 -54 105 -25 68 -69 185 -97 259 -28 74 -106 279 -172 455 -66 176 -135
358 -153 405 -18 47 -43 113 -55 148 l-23 62 -158 0 -159 0 0 -865z"/>
<path d="M2460 2125 l0 -865 115 0 115 0 0 303 0 303 88 81 c48 44 112 104
142 132 30 28 57 51 60 51 3 0 25 -31 50 -68 25 -37 50 -74 57 -82 18 -22 286
-399 298 -418 6 -10 13 -19 16 -22 3 -3 49 -67 103 -142 l98 -138 144 0 145 0
-23 33 c-13 18 -158 216 -323 441 -346 471 -341 463 -380 517 l-29 41 100 97
c191 182 479 459 554 530 l75 71 -150 0 -150 0 -435 -429 -435 -429 -3 429 -2
429 -115 0 -115 0 0 -865z"/>
</g>
</svg>
